<svg width="224" height="363" viewBox="0 0 224 363" fill="none" xmlns="http://www.w3.org/2000/svg">
<path d="M41.0036 312.5C46.0035 324.5 46.0035 345.5 48.5035 351.5C51.0035 357.5 64.0035 360 71.5035 361C79.0035 362 97.5035 362.5 104.004 362.5V298.5H96.4166H70.8104L43.5041 296.5L26.0041 289L17.0041 278L10.0041 269C9.846 274.167 14.2899 283.366 24.0036 292C28.5036 296 36.0036 300.5 41.0036 312.5Z" fill="#DDA979" stroke="#DDA979" stroke-width="0.5"/>
<path d="M167.004 312.5C162.004 324.5 162.004 345.5 159.504 351.5C157.004 357.5 144.004 360 136.504 361C129.004 362 110.504 362.5 104.004 362.5V298.5H111.591H137.197L164.504 296.5L182.004 289L191.004 278L198.004 269C198.162 274.167 193.718 283.366 184.004 292C179.504 296 172.004 300.5 167.004 312.5Z" fill="#DDA979" stroke="#DDA979" stroke-width="0.5"/>
<path d="M41.0036 51C46.0035 39 46.0035 18 48.5035 12C51.0035 6.00004 64.0035 3.5 71.5035 2.5C79.0035 1.5 97.5035 1 104.004 1V65H96.4166H70.8104L43.5041 67L26.0041 74.5L17.0041 85.5L10.0041 94.5C9.846 89.3333 14.2899 80.1344 24.0036 71.5C28.5036 67.5 36.0036 63 41.0036 51Z" fill="#DDA979" stroke="#DDA979" stroke-width="0.5"/>
<path d="M167.004 51C162.004 39 162.004 18 159.504 12C157.004 6.00004 144.004 3.5 136.504 2.5C129.004 1.5 110.504 1 104.004 1V65H111.591H137.197L164.504 67L182.004 74.5L191.004 85.5L198.004 94.5C198.162 89.3333 193.718 80.1344 184.004 71.5C179.504 67.5 172.004 63 167.004 51Z" fill="#DDA979" stroke="#DDA979" stroke-width="0.5"/>
<rect x="0.5" y="60.5" width="206" height="243" rx="54.5" fill="#020202"/>
<rect x="0.5" y="60.5" width="206" height="243" rx="54.5" stroke="white"/>
<rect x="9" y="69" width="189" height="226" rx="47" fill="white"/>
<rect x="14" y="74" width="179" height="216" rx="42" fill="#D7F0D6"/>
<path d="M204.074 120.189C204.403 119.071 204.549 118.583 205.056 117.856C205.325 117.47 205.78 117.027 206.303 116.636C206.827 116.244 207.38 115.933 207.826 115.783C208.66 115.505 209.347 115.5 210.907 115.5C212.248 115.5 213.229 115.5 214.011 115.554C214.788 115.608 215.335 115.713 215.811 115.907C217.113 116.438 218.2 117.496 218.767 118.782C219.192 119.747 219.234 120.935 219.308 123.598C219.411 127.309 219.5 131.86 219.5 136.5C219.5 140.597 219.431 144.346 219.343 147.438C219.269 150.095 219.226 151.277 218.784 152.259C218.223 153.504 217.146 154.551 215.886 155.076C215.401 155.278 214.848 155.388 214.067 155.443C213.279 155.5 212.293 155.5 210.944 155.5C209.344 155.5 208.64 155.495 207.79 155.204C207.354 155.055 206.813 154.749 206.299 154.364C205.786 153.98 205.34 153.547 205.074 153.171C204.552 152.431 204.402 151.929 204.064 150.775C203.049 147.311 202 142.129 202 135.5C202 128.848 203.056 123.654 204.074 120.189Z" fill="black" stroke="white"/>
</svg>
