<svg width="224" height="363" viewBox="0 0 224 363" fill="none" xmlns="http://www.w3.org/2000/svg">
<path d="M41.0036 312.531C46.0035 324.531 46.0035 345.531 48.5035 351.531C51.0035 357.531 64.0035 360.031 71.5035 361.031C79.0035 362.031 97.5035 362.531 104.004 362.531V298.531H96.4166H70.8104L43.5041 296.531L26.0041 289.031L17.0041 278.031L10.0041 269.031C9.846 274.198 14.2899 283.397 24.0036 292.031C28.5036 296.031 36.0036 300.531 41.0036 312.531Z" fill="#DDA979" stroke="#DDA979" stroke-width="0.5"/>
<path d="M167.004 312.531C162.004 324.531 162.004 345.531 159.504 351.531C157.004 357.531 144.004 360.031 136.504 361.031C129.004 362.031 110.504 362.531 104.004 362.531V298.531H111.591H137.197L164.504 296.531L182.004 289.031L191.004 278.031L198.004 269.031C198.162 274.198 193.718 283.397 184.004 292.031C179.504 296.031 172.004 300.531 167.004 312.531Z" fill="#DDA979" stroke="#DDA979" stroke-width="0.5"/>
<path d="M41.0036 51.0314C46.0035 39.0314 46.0035 18.0314 48.5035 12.0314C51.0035 6.03141 64.0035 3.53137 71.5035 2.53137C79.0035 1.53137 97.5035 1.03137 104.004 1.03137V65.0314H96.4166H70.8104L43.5041 67.0314L26.0041 74.5314L17.0041 85.5314L10.0041 94.5314C9.846 89.3647 14.2899 80.1657 24.0036 71.5314C28.5036 67.5314 36.0036 63.0314 41.0036 51.0314Z" fill="#DDA979" stroke="#DDA979" stroke-width="0.5"/>
<path d="M167.004 51.0314C162.004 39.0314 162.004 18.0314 159.504 12.0314C157.004 6.03141 144.004 3.53137 136.504 2.53137C129.004 1.53137 110.504 1.03137 104.004 1.03137V65.0314H111.591H137.197L164.504 67.0314L182.004 74.5314L191.004 85.5314L198.004 94.5314C198.162 89.3647 193.718 80.1657 184.004 71.5314C179.504 67.5314 172.004 63.0314 167.004 51.0314Z" fill="#DDA979" stroke="#DDA979" stroke-width="0.5"/>
<rect x="0.5" y="60.5314" width="206" height="243" rx="54.5" fill="#020202"/>
<rect x="0.5" y="60.5314" width="206" height="243" rx="54.5" stroke="white"/>
<rect x="9" y="69.0314" width="189" height="226" rx="47" fill="white"/>
<rect x="14" y="74.0314" width="179" height="216" rx="42" fill="#C2C2C2"/>
<path d="M204.074 120.221C204.403 119.102 204.549 118.615 205.056 117.887C205.325 117.501 205.78 117.059 206.303 116.667C206.827 116.275 207.38 115.964 207.826 115.815C208.66 115.536 209.347 115.531 210.907 115.531C212.248 115.531 213.229 115.532 214.011 115.586C214.788 115.639 215.335 115.745 215.811 115.939C217.113 116.47 218.2 117.527 218.767 118.814C219.192 119.779 219.234 120.966 219.308 123.629C219.411 127.34 219.5 131.892 219.5 136.531C219.5 140.628 219.431 144.378 219.343 147.47C219.269 150.126 219.226 151.309 218.784 152.291C218.223 153.535 217.146 154.582 215.886 155.108C215.401 155.31 214.848 155.419 214.067 155.475C213.279 155.531 212.293 155.531 210.944 155.531C209.344 155.531 208.64 155.527 207.79 155.236C207.354 155.087 206.813 154.78 206.299 154.396C205.786 154.012 205.34 153.579 205.074 153.202C204.552 152.463 204.402 151.96 204.064 150.807C203.049 147.343 202 142.161 202 135.531C202 128.879 203.056 123.685 204.074 120.221Z" fill="black" stroke="white"/>
<path d="M223.5 219.531C223.5 229.201 222.194 236.666 220.989 241.495C220.988 241.498 220.987 241.5 220.986 241.502C220.978 241.519 220.973 241.533 220.969 241.542C220.966 241.551 220.962 241.56 220.959 241.568C220.954 241.584 220.948 241.602 220.942 241.621C220.488 243.039 219.365 244.473 217.94 245.581C216.514 246.69 214.848 247.425 213.362 247.516C213.103 247.531 213.073 247.531 213.027 247.531L213.02 247.531C212.314 247.531 211.986 247.531 211.689 247.51C207.593 247.218 204.226 243.936 203.831 239.849C203.803 239.552 203.795 239.242 203.778 238.574C203.638 233.041 203.5 225.675 203.5 218.141C203.5 211.299 203.614 205.153 203.739 200.452C203.757 199.787 203.766 199.479 203.798 199.164C204.211 195.135 207.574 191.861 211.612 191.556C211.928 191.532 212.263 191.531 212.985 191.531L212.993 191.531C213.075 191.531 213.12 191.531 213.395 191.549C214.871 191.645 216.525 192.379 217.942 193.481C219.359 194.584 220.477 196.007 220.933 197.414C220.939 197.434 220.945 197.452 220.951 197.468C220.956 197.482 220.963 197.501 220.971 197.521C220.974 197.528 220.979 197.54 220.986 197.555C222.192 202.384 223.5 209.853 223.5 219.531Z" stroke="white"/>
</svg>
