<svg width="20" height="20" viewBox="0 0 20 20" fill="none" xmlns="http://www.w3.org/2000/svg">
<path d="M6.62499 14.962C6.51532 14.8872 6.43986 14.7719 6.4152 14.6415C6.39054 14.5111 6.4187 14.3762 6.49349 14.2665C6.56828 14.1568 6.68358 14.0814 6.81401 14.0567C6.94444 14.0321 7.07932 14.0602 7.18899 14.135C8.11225 14.7626 9.21901 15.0632 10.3329 14.9889C11.4468 14.9146 12.5038 14.4696 13.3355 13.7248C14.1672 12.9801 14.7257 11.9784 14.922 10.8794C15.1184 9.78042 14.9413 8.64733 14.419 7.66066C13.8967 6.67399 13.0591 5.89051 12.0399 5.43505C11.0206 4.97958 9.87826 4.87833 8.79478 5.14743C7.7113 5.41653 6.74905 6.04049 6.06133 6.91991C5.37361 7.79933 4.99999 8.88361 4.99999 10C4.99999 10.1326 4.94731 10.2598 4.85355 10.3536C4.75978 10.4473 4.6326 10.5 4.49999 10.5C4.36738 10.5 4.24021 10.4473 4.14644 10.3536C4.05267 10.2598 3.99999 10.1326 3.99999 10C4.00011 8.66032 4.44859 7.3592 5.27397 6.30397C6.09935 5.24873 7.25414 4.50008 8.55437 4.1773C9.8546 3.85452 11.2254 3.97617 12.4485 4.52289C13.6716 5.0696 14.6765 6.00991 15.3031 7.194C15.9298 8.3781 16.1421 9.73786 15.9063 11.0566C15.6705 12.3754 15.0001 13.5773 14.002 14.4709C13.0038 15.3645 11.7353 15.8983 10.3986 15.9873C9.06186 16.0763 7.7338 15.7154 6.62599 14.962" fill="#0F1217"/>
<path d="M7.23095 8.41504C7.28623 8.37786 7.34838 8.3521 7.41375 8.33927C7.47912 8.32645 7.54639 8.32681 7.61161 8.34035C7.67684 8.35389 7.7387 8.38032 7.79357 8.4181C7.84844 8.45588 7.8952 8.50424 7.93112 8.56035C7.96703 8.61645 7.99138 8.67917 8.00271 8.74481C8.01405 8.81046 8.01216 8.8777 7.99715 8.94261C7.98213 9.00751 7.9543 9.06876 7.91528 9.12275C7.87627 9.17675 7.82686 9.2224 7.76995 9.25704L4.28795 11.484C4.23268 11.5212 4.17053 11.547 4.10516 11.5598C4.03979 11.5726 3.97252 11.5723 3.90729 11.5587C3.84206 11.5452 3.7802 11.5187 3.72533 11.481C3.67047 11.4432 3.6237 11.3948 3.58779 11.3387C3.55187 11.2826 3.52753 11.2199 3.51619 11.1543C3.50485 11.0886 3.50675 11.0214 3.52176 10.9565C3.53678 10.8916 3.56461 10.8303 3.60362 10.7763C3.64264 10.7223 3.69205 10.6767 3.74895 10.642L7.23095 8.41504Z" fill="#0F1217"/>
<path d="M2.05309 7.88601C2.00343 7.76567 2.00267 7.6307 2.05096 7.5098C2.09925 7.38891 2.1928 7.29161 2.3117 7.2386C2.43061 7.1856 2.5655 7.18106 2.6877 7.22595C2.80991 7.27085 2.90978 7.36163 2.96609 7.47901L4.47509 10.859C4.50188 10.919 4.51659 10.9837 4.51837 11.0494C4.52015 11.1151 4.50898 11.1805 4.48549 11.2419C4.46199 11.3033 4.42664 11.3594 4.38145 11.4072C4.33625 11.4549 4.2821 11.4932 4.22209 11.52C4.16208 11.5468 4.09737 11.5615 4.03167 11.5633C3.96598 11.5651 3.90057 11.5539 3.83919 11.5304C3.77781 11.5069 3.72166 11.4716 3.67395 11.4264C3.62623 11.3812 3.58788 11.327 3.56109 11.267L2.05309 7.88601Z" fill="#0F1217"/>
</svg>
